<?xml version="1.0" encoding="UTF-8" standalone="no"?>
<!DOCTYPE svg PUBLIC "-//W3C//DTD SVG 1.1//EN" "http://www.w3.org/Graphics/SVG/1.1/DTD/svg11.dtd">
<svg width="100%" height="100%" viewBox="0 0 1048 1048" version="1.1" xmlns="http://www.w3.org/2000/svg" xmlns:xlink="http://www.w3.org/1999/xlink" xml:space="preserve" xmlns:serif="http://www.serif.com/" style="fill-rule:evenodd;clip-rule:evenodd;stroke-linejoin:round;stroke-miterlimit:2;">
    <g id="Icon-1-Dark" serif:id="Icon 1 Dark">
    </g>
    <g transform="matrix(0.51088,-0.029283,0.029283,0.51088,-36.2097,-2.06599)">
        <path id="Gradient-1" serif:id="Gradient 1" d="M803.214,1778.35C789.099,1775.09 777.095,1766.83 767.202,1753.56C757.309,1740.29 754.359,1724.82 758.352,1707.12L829.352,1407.51C830.276,1403.6 831.678,1399.63 833.558,1395.61C835.437,1391.58 837.531,1387.57 839.84,1383.57L897.024,1286.56C897.024,1286.56 945.048,1313.49 1029,1326.19L943.321,1443.32L874.362,1734.78C870.665,1750.42 861.793,1762.51 847.745,1771.07C833.697,1779.62 818.854,1782.05 803.214,1778.35ZM790.371,542.186C789.296,534.934 789.302,526.054 791.301,518.925C802.54,478.836 850.528,462.528 884.449,485.938C890.347,490.009 896.241,496.693 899.864,502.838C903.881,509.651 906.273,517.044 907.428,524.841L940.034,742.63L1107.66,743.145C1149.27,743.291 1185.28,754.031 1217.06,780.705L1446.09,972.934L1537.01,761.356C1540.28,754.027 1544.66,747.432 1550.46,741.845C1556.22,736.298 1562.85,732.278 1570.27,729.36C1607.01,714.907 1647.45,740.954 1651.38,780.029C1652.39,790.063 1650.95,799.858 1646.89,809.118L1523.79,1093.16C1513.38,1116.98 1486.53,1139.8 1458.84,1131.15C1447.74,1127.69 1439.98,1123.05 1431.11,1115.6L1287.41,994.993C1281.04,989.649 1270.79,990.235 1265.89,997.283L1122.99,1195.37C1089.94,1240.87 1038.67,1267.85 981.776,1257.34C964.024,1254.06 947.569,1247.8 931.785,1239.12L714.31,1122.91L508.264,1287.6C501.715,1292.88 494.501,1296.94 486.328,1299.14C478.766,1301.18 470.278,1301.39 462.619,1299.78C449.601,1297.04 442.989,1294.19 432.318,1286.22C410.535,1269.94 406.63,1235.43 419.522,1212.74C423.589,1205.58 428.226,1200.08 434.607,1194.88L670.822,1005.02C689.288,990.237 714.965,989.962 736.253,998.896L916.549,1074.1L1048.9,891.274C1058.37,877.657 1049.56,861.66 1033.18,861.507L918.406,860.882C837.206,860.882 821.198,753.233 821.198,753.233L790.371,542.186ZM1241.76,735.116C1224.07,720.272 1211.58,702.379 1204.29,681.437C1197,660.495 1195.12,639.08 1198.68,617.191C1202.23,595.301 1211.42,575.514 1226.27,557.828C1241.11,540.142 1259.01,527.652 1279.95,520.36C1300.89,513.067 1322.37,511.122 1344.38,514.525C1366.39,517.929 1386.24,527.052 1403.93,541.896C1421.61,556.74 1434.12,574.769 1441.43,595.982C1448.75,617.195 1450.63,638.746 1447.08,660.635C1443.53,682.524 1434.33,702.312 1419.49,719.998C1404.64,737.684 1386.75,750.173 1365.81,757.466C1344.87,764.759 1323.38,766.568 1301.34,762.894C1279.31,759.219 1259.44,749.96 1241.76,735.116Z" style="fill:rgb(18,19,23);"/>
    </g>
</svg>
