<?xml version="1.0" encoding="UTF-8" standalone="no"?>
<!DOCTYPE svg PUBLIC "-//W3C//DTD SVG 1.1//EN" "http://www.w3.org/Graphics/SVG/1.1/DTD/svg11.dtd">
<svg width="100%" height="100%" viewBox="0 0 3300 2200" version="1.1" xmlns="http://www.w3.org/2000/svg" xmlns:xlink="http://www.w3.org/1999/xlink" xml:space="preserve" xmlns:serif="http://www.serif.com/" style="fill-rule:evenodd;clip-rule:evenodd;">
    <g id="Notes">
        <rect id="artboard" x="0" y="0" width="3300" height="2200" style="fill:white;"/>
        <path d="M263,292L3036,292" style="fill:none;fill-rule:nonzero;stroke:black;stroke-width:0.5px;"/>
        <g transform="matrix(1,0,0,1,263,322)">
            <text x="0px" y="0px" style="font-family:'LucidaGrande-Bold', 'Lucida Grande', sans-serif;font-weight:600;font-size:13px;">Weight/Scale Variations</text>
        </g>
        <g transform="matrix(1,0,0,1,559.711,322)">
            <text x="-29.339px" y="0px" style="font-family:'LucidaGrande', 'Lucida Grande', sans-serif;font-weight:500;font-size:13px;">Ultralight</text>
        </g>
        <g transform="matrix(1,0,0,1,856.422,322)">
            <text x="-14.057px" y="0px" style="font-family:'LucidaGrande', 'Lucida Grande', sans-serif;font-weight:500;font-size:13px;">Thin</text>
        </g>
        <g transform="matrix(1,0,0,1,1153.13,322)">
            <text x="-15.863px" y="0px" style="font-family:'LucidaGrande', 'Lucida Grande', sans-serif;font-weight:500;font-size:13px;">Light</text>
        </g>
        <g transform="matrix(1,0,0,1,1449.84,322)">
            <text x="-23.947px" y="0px" style="font-family:'LucidaGrande', 'Lucida Grande', sans-serif;font-weight:500;font-size:13px;">Regular</text>
        </g>
        <g transform="matrix(1,0,0,1,1746.56,322)">
            <text x="-25.292px" y="0px" style="font-family:'LucidaGrande', 'Lucida Grande', sans-serif;font-weight:500;font-size:13px;">Medium</text>
        </g>
        <g transform="matrix(1,0,0,1,2043.27,322)">
            <text x="-29.123px" y="0px" style="font-family:'LucidaGrande', 'Lucida Grande', sans-serif;font-weight:500;font-size:13px;">Semibold</text>
        </g>
        <g transform="matrix(1,0,0,1,2339.98,322)">
            <text x="-13.701px" y="0px" style="font-family:'LucidaGrande', 'Lucida Grande', sans-serif;font-weight:500;font-size:13px;">Bold</text>
        </g>
        <g transform="matrix(1,0,0,1,2636.69,322)">
            <text x="-18.748px" y="0px" style="font-family:'LucidaGrande', 'Lucida Grande', sans-serif;font-weight:500;font-size:13px;">Heavy</text>
        </g>
        <g transform="matrix(1,0,0,1,2933.4,322)">
            <text x="-16.336px" y="0px" style="font-family:'LucidaGrande', 'Lucida Grande', sans-serif;font-weight:500;font-size:13px;">Black</text>
        </g>
        <path d="M263,1903L3036,1903" style="fill:none;fill-rule:nonzero;stroke:black;stroke-width:0.5px;"/>
        <g transform="matrix(0.2,0,0,0.2,263,1933)">
            <path d="M46.24,4.15C67.773,4.15 85.693,-13.721 85.693,-35.254C85.693,-56.787 67.724,-74.658 46.191,-74.658C24.707,-74.658 6.836,-56.787 6.836,-35.254C6.836,-13.721 24.756,4.15 46.24,4.15L46.24,4.15ZM46.24,-3.271C28.516,-3.271 14.355,-17.48 14.355,-35.254C14.355,-53.027 28.467,-67.236 46.191,-67.236C63.965,-67.236 78.223,-53.027 78.223,-35.254C78.223,-17.48 64.013,-3.271 46.24,-3.271L46.24,-3.271ZM28.271,-35.254C28.271,-33.105 29.785,-31.641 32.031,-31.641L42.529,-31.641L42.529,-21.045C42.529,-18.848 43.994,-17.334 46.142,-17.334C48.389,-17.334 49.853,-18.848 49.853,-21.045L49.853,-31.641L60.449,-31.641C62.646,-31.641 64.16,-33.105 64.16,-35.254C64.16,-37.451 62.646,-38.965 60.449,-38.965L49.853,-38.965L49.853,-49.512C49.853,-51.758 48.389,-53.272 46.142,-53.272C43.994,-53.272 42.529,-51.758 42.529,-49.512L42.529,-38.965L32.031,-38.965C29.785,-38.965 28.271,-37.451 28.271,-35.254Z" style="fill-rule:nonzero;"/>
        </g>
        <g transform="matrix(0.2,0,0,0.2,281.506,1933)">
            <path d="M58.545,14.551C85.791,14.551 108.35,-8.057 108.35,-35.254C108.35,-62.5 85.742,-85.059 58.496,-85.059C31.299,-85.059 8.74,-62.5 8.74,-35.254C8.74,-8.057 31.348,14.551 58.545,14.551ZM58.545,6.25C35.498,6.25 17.09,-12.207 17.09,-35.254C17.09,-58.301 35.449,-76.758 58.496,-76.758C81.543,-76.758 100.049,-58.301 100.049,-35.254C100.049,-12.207 81.592,6.25 58.545,6.25L58.545,6.25ZM35.889,-35.254C35.889,-32.861 37.549,-31.25 40.039,-31.25L54.395,-31.25L54.395,-16.846C54.395,-14.404 56.055,-12.695 58.447,-12.695C60.889,-12.695 62.598,-14.355 62.598,-16.846L62.598,-31.25L77.002,-31.25C79.443,-31.25 81.152,-32.861 81.152,-35.254C81.152,-37.695 79.443,-39.404 77.002,-39.404L62.598,-39.404L62.598,-53.76C62.598,-56.25 60.889,-57.959 58.447,-57.959C56.055,-57.959 54.395,-56.25 54.395,-53.76L54.395,-39.404L40.039,-39.404C37.549,-39.404 35.889,-37.695 35.889,-35.254Z" style="fill-rule:nonzero;"/>
        </g>
        <g transform="matrix(0.2,0,0,0.2,304.924,1933)">
            <path d="M74.854,28.32C109.668,28.32 138.476,-0.488 138.476,-35.254C138.476,-70.068 109.619,-98.877 74.805,-98.877C40.039,-98.877 11.279,-70.068 11.279,-35.254C11.279,-0.488 40.088,28.32 74.853,28.32L74.854,28.32ZM74.854,19.238C44.678,19.238 20.41,-5.078 20.41,-35.254C20.41,-65.479 44.629,-89.746 74.805,-89.746C105.029,-89.746 129.346,-65.479 129.346,-35.254C129.346,-5.078 105.078,19.238 74.853,19.238L74.854,19.238ZM45.996,-35.254C45.996,-32.666 47.852,-30.859 50.586,-30.859L70.313,-30.859L70.313,-11.084C70.313,-8.398 72.168,-6.494 74.756,-6.494C77.441,-6.494 79.297,-8.35 79.297,-11.084L79.297,-30.859L99.072,-30.859C101.758,-30.859 103.662,-32.666 103.662,-35.254C103.662,-37.988 101.807,-39.844 99.072,-39.844L79.297,-39.844L79.297,-59.57C79.297,-62.305 77.441,-64.209 74.756,-64.209C72.168,-64.209 70.313,-62.305 70.313,-59.57L70.313,-39.844L50.586,-39.844C47.852,-39.844 45.996,-37.988 45.996,-35.254Z" style="fill-rule:nonzero;"/>
        </g>
        <g transform="matrix(1,0,0,1,263,1953)">
            <text x="0px" y="0px" style="font-family:'LucidaGrande-Bold', 'Lucida Grande', sans-serif;font-weight:600;font-size:13px;">Design Variations</text>
        </g>
        <g transform="matrix(1,0,0,1,263,1971)">
            <text x="0px" y="0px" style="font-family:'LucidaGrande', 'Lucida Grande', sans-serif;font-weight:500;font-size:13px;">Symbols are supported in up to nine weights and three scales.</text>
        </g>
        <g transform="matrix(1,0,0,1,263,1989)">
            <text x="0px" y="0px" style="font-family:'LucidaGrande', 'Lucida Grande', sans-serif;font-weight:500;font-size:13px;">For optimal layout with text and other symbols, vertically align</text>
        </g>
        <g transform="matrix(1,0,0,1,263,2007)">
            <text x="0px" y="0px" style="font-family:'LucidaGrande', 'Lucida Grande', sans-serif;font-weight:500;font-size:13px;">symbols with the adjacent text.</text>
        </g>
        <path d="M776,1919L776,1933" style="fill:none;fill-rule:nonzero;stroke:rgb(0,174,239);stroke-width:0.5px;"/>
        <g transform="matrix(0.2,0,0,0.2,776,1933)">
            <path d="M16.553,0.781C19.141,0.781 20.41,-0.195 21.338,-2.93L27.637,-20.166L56.445,-20.166L62.744,-2.93C63.672,-0.195 64.941,0.781 67.48,0.781C70.068,0.781 71.729,-0.781 71.729,-3.223C71.729,-4.053 71.582,-4.834 71.191,-5.859L48.291,-66.846C47.168,-69.824 45.166,-71.338 42.041,-71.338C39.014,-71.338 36.963,-69.873 35.889,-66.895L12.988,-5.811C12.598,-4.785 12.451,-4.004 12.451,-3.174C12.451,-0.732 14.014,0.781 16.553,0.781L16.553,0.781ZM30.029,-27.588L41.895,-60.449L42.139,-60.449L54.004,-27.588L30.029,-27.588Z" style="fill-rule:nonzero;"/>
        </g>
        <path d="M792.836,1919L792.836,1933" style="fill:none;fill-rule:nonzero;stroke:rgb(0,174,239);stroke-width:0.5px;"/>
        <g transform="matrix(1,0,0,1,776,1953)">
            <text x="0px" y="0px" style="font-family:'LucidaGrande-Bold', 'Lucida Grande', sans-serif;font-weight:600;font-size:13px;">Margins</text>
        </g>
        <g transform="matrix(1,0,0,1,776,1971)">
            <text x="0px" y="0px" style="font-family:'LucidaGrande', 'Lucida Grande', sans-serif;font-weight:500;font-size:13px;">Leading and trailing margins on the left and right side of each symbol</text>
        </g>
        <g transform="matrix(1,0,0,1,776,1989)">
            <text x="0px" y="0px" style="font-family:'LucidaGrande', 'Lucida Grande', sans-serif;font-weight:500;font-size:13px;">can be adjusted by modifying the x-location of the margin guidelines.</text>
        </g>
        <g transform="matrix(1,0,0,1,776,2007)">
            <text x="0px" y="0px" style="font-family:'LucidaGrande', 'Lucida Grande', sans-serif;font-weight:500;font-size:13px;">Modiﬁcations are automatically applied proportionally to all</text>
        </g>
        <g transform="matrix(1,0,0,1,776,2025)">
            <text x="0px" y="0px" style="font-family:'LucidaGrande', 'Lucida Grande', sans-serif;font-weight:500;font-size:13px;">scales and weights.</text>
        </g>
        <g transform="matrix(0.2,0,0,0.2,1289,1933)">
            <path d="M14.209,9.326L22.705,17.871C27.002,22.217 31.934,21.924 36.572,16.797L90.039,-42.139L85.205,-47.021L32.129,11.377C30.371,13.379 28.711,13.867 26.367,11.523L20.508,5.713C18.164,3.418 18.701,1.709 20.703,-0.098L78.076,-54.102L73.193,-58.936L15.234,-4.492C10.303,0.098 9.912,4.981 14.209,9.326L14.209,9.326ZM46.289,-81.641C44.189,-79.59 44.043,-76.709 45.215,-74.756C46.387,-72.949 48.682,-71.777 51.904,-72.607C59.229,-74.316 66.846,-74.609 73.975,-69.922L71.045,-62.646C69.336,-58.496 70.215,-55.566 72.9,-52.832L84.375,-41.26C86.816,-38.818 88.867,-38.721 91.699,-39.209L97.022,-40.186L100.342,-36.816L100.146,-34.033C99.951,-31.543 100.586,-29.639 103.027,-27.246L106.836,-23.535C109.229,-21.143 112.305,-20.996 114.648,-23.34L129.199,-37.939C131.543,-40.283 131.445,-43.262 129.053,-45.654L125.195,-49.463C122.803,-51.855 120.947,-52.637 118.555,-52.441L115.674,-52.197L112.451,-55.371L113.672,-60.986C114.307,-63.818 113.525,-66.016 110.596,-68.945L99.609,-79.883C82.91,-96.484 60.742,-96.094 46.289,-81.641L46.289,-81.641ZM53.76,-79.785C65.918,-88.672 82.373,-87.158 93.506,-76.025L105.664,-63.965C106.836,-62.793 107.031,-61.865 106.689,-60.156L105.078,-52.734L112.598,-45.313L117.529,-45.606C118.799,-45.654 119.189,-45.557 120.166,-44.58L123.047,-41.699L110.84,-29.492L107.959,-32.373C106.982,-33.35 106.836,-33.74 106.885,-35.059L107.227,-39.941L99.756,-47.363L92.139,-46.094C90.527,-45.752 89.795,-45.899 88.574,-47.07L78.564,-57.08C77.295,-58.252 77.148,-59.082 77.93,-60.938L82.324,-71.387C74.512,-78.662 64.355,-81.787 54.199,-78.809C53.418,-78.613 53.125,-79.248 53.76,-79.785L53.76,-79.785Z" style="fill-rule:nonzero;"/>
        </g>
        <g transform="matrix(1,0,0,1,1289,1953)">
            <text x="0px" y="0px" style="font-family:'LucidaGrande-Bold', 'Lucida Grande', sans-serif;font-weight:600;font-size:13px;">Exporting</text>
        </g>
        <g transform="matrix(1,0,0,1,1289,1971)">
            <text x="0px" y="0px" style="font-family:'LucidaGrande', 'Lucida Grande', sans-serif;font-weight:500;font-size:13px;">Symbols should be outlined when exporting to ensure the</text>
        </g>
        <g transform="matrix(1,0,0,1,1289,1989)">
            <text x="0px" y="0px" style="font-family:'LucidaGrande', 'Lucida Grande', sans-serif;font-weight:500;font-size:13px;">design is preserved when submitting to Xcode.</text>
        </g>
        <g id="template-version" transform="matrix(1,0,0,1,3036,1933)">
            <text x="-94.333px" y="0px" style="font-family:'LucidaGrande', 'Lucida Grande', sans-serif;font-weight:500;font-size:13px;">Template v.5.0</text>
        </g>
        <g transform="matrix(1,0,0,1,3036,1951)">
            <text x="-184.336px" y="0px" style="font-family:'LucidaGrande', 'Lucida Grande', sans-serif;font-weight:500;font-size:13px;">Requires Xcode 15 or greater</text>
        </g>
        <g id="descriptive-name" transform="matrix(1,0,0,1,3036,1969)">
            <text x="-142.111px" y="0px" style="font-family:'LucidaGrande', 'Lucida Grande', sans-serif;font-weight:500;font-size:13px;">Generated from eraser</text>
        </g>
        <g transform="matrix(1,0,0,1,3036,1987)">
            <text x="-150.027px" y="0px" style="font-family:'LucidaGrande', 'Lucida Grande', sans-serif;font-weight:500;font-size:13px;">Typeset at 100.0 points</text>
        </g>
        <g transform="matrix(1,0,0,1,263,726)">
            <text x="0px" y="0px" style="font-family:'LucidaGrande', 'Lucida Grande', sans-serif;font-weight:500;font-size:13px;">Small</text>
        </g>
        <g transform="matrix(1,0,0,1,263,1156)">
            <text x="0px" y="0px" style="font-family:'LucidaGrande', 'Lucida Grande', sans-serif;font-weight:500;font-size:13px;">Medium</text>
        </g>
        <g transform="matrix(1,0,0,1,263,1586)">
            <text x="0px" y="0px" style="font-family:'LucidaGrande', 'Lucida Grande', sans-serif;font-weight:500;font-size:13px;">Large</text>
        </g>
    </g>
    <g id="Guides">
        <g id="H-reference" transform="matrix(1,0,0,1,339,696)">
            <path d="M0.994,0L3.638,0L29.328,-67.132L30.03,-67.132L30.03,-70.459L28.123,-70.459L0.994,0ZM11.689,-24.48L46.981,-24.48L46.231,-26.729L12.439,-26.729L11.689,-24.48ZM55.12,0L57.764,0L30.638,-70.459L29.433,-70.459L29.433,-67.132L55.12,0Z" style="fill:rgb(39,170,225);fill-rule:nonzero;"/>
        </g>
        <path id="Baseline-S" d="M263,696L3036,696" style="fill:none;fill-rule:nonzero;stroke:rgb(39,170,225);stroke-width:0.5px;"/>
        <path id="Capline-S" d="M263,625.541L3036,625.541" style="fill:none;fill-rule:nonzero;stroke:rgb(39,170,225);stroke-width:0.5px;"/>
        <g id="H-reference1" serif:id="H-reference" transform="matrix(1,0,0,1,339,1126)">
            <path d="M0.994,0L3.638,0L29.328,-67.132L30.03,-67.132L30.03,-70.459L28.123,-70.459L0.994,0ZM11.689,-24.48L46.981,-24.48L46.231,-26.729L12.439,-26.729L11.689,-24.48ZM55.12,0L57.764,0L30.638,-70.459L29.433,-70.459L29.433,-67.132L55.12,0Z" style="fill:rgb(39,170,225);fill-rule:nonzero;"/>
        </g>
        <path id="Baseline-M" d="M263,1126L3036,1126" style="fill:none;fill-rule:nonzero;stroke:rgb(39,170,225);stroke-width:0.5px;"/>
        <path id="Capline-M" d="M263,1055.54L3036,1055.54" style="fill:none;fill-rule:nonzero;stroke:rgb(39,170,225);stroke-width:0.5px;"/>
        <g id="H-reference2" serif:id="H-reference" transform="matrix(1,0,0,1,339,1556)">
            <path d="M0.994,0L3.638,0L29.328,-67.132L30.03,-67.132L30.03,-70.459L28.123,-70.459L0.994,0ZM11.689,-24.48L46.981,-24.48L46.231,-26.729L12.439,-26.729L11.689,-24.48ZM55.12,0L57.764,0L30.638,-70.459L29.433,-70.459L29.433,-67.132L55.12,0Z" style="fill:rgb(39,170,225);fill-rule:nonzero;"/>
        </g>
        <path id="Baseline-L" d="M263,1556L3036,1556" style="fill:none;fill-rule:nonzero;stroke:rgb(39,170,225);stroke-width:0.5px;"/>
        <path id="Capline-L" d="M263,1485.54L3036,1485.54" style="fill:none;fill-rule:nonzero;stroke:rgb(39,170,225);stroke-width:0.5px;"/>
        <path id="left-margin-Ultralight-S" d="M515.335,600.785L515.335,720.121" style="fill:none;fill-rule:nonzero;stroke:rgb(0,174,239);stroke-width:0.5px;"/>
        <path id="right-margin-Ultralight-S" d="M604.088,600.785L604.088,720.121" style="fill:none;fill-rule:nonzero;stroke:rgb(0,174,239);stroke-width:0.5px;"/>
        <path id="left-margin-Regular-S" d="M1402.33,600.785L1402.33,720.121" style="fill:none;fill-rule:nonzero;stroke:rgb(0,174,239);stroke-width:0.5px;"/>
        <path id="right-margin-Regular-S" d="M1497.35,600.785L1497.35,720.121" style="fill:none;fill-rule:nonzero;stroke:rgb(0,174,239);stroke-width:0.5px;"/>
        <path id="left-margin-Black-S" d="M2879.35,600.785L2879.35,720.121" style="fill:none;fill-rule:nonzero;stroke:rgb(0,174,239);stroke-width:0.5px;"/>
        <path id="right-margin-Black-S" d="M2987.45,600.785L2987.45,720.121" style="fill:none;fill-rule:nonzero;stroke:rgb(0,174,239);stroke-width:0.5px;"/>
    </g>
    <g id="Symbols">
        <g id="Regular-M">
            <path d="M1406.41,1084.72L1405.93,1085.45L1405.49,1086.22L1405.07,1087.07L1404.73,1087.85L1404.41,1088.7L1404.24,1089.27L1404,1090.14L1403.82,1091.01L1403.72,1091.64L1403.63,1092.48L1403.58,1093.32L1403.57,1094.14L1403.6,1094.99L1403.67,1095.89L1403.78,1096.64L1403.91,1097.36L1404.02,1097.86C1404.81,1101.15 1406.7,1103.67 1408.01,1105.04C1415.27,1112.68 1440.8,1137.31 1462.77,1137.35L1463.07,1137.34C1466.8,1137.31 1470.41,1136.56 1473.82,1134.9L1475.33,1134.15L1476.33,1133.65L1478.31,1132.61L1479.94,1131.72L1481.49,1130.85L1482.95,1129.98L1484.32,1129.13L1485.61,1128.29L1486.82,1127.46L1487.95,1126.64L1488.99,1125.83L1489.96,1125.03L1490.85,1124.24L1491.54,1123.59L1492.3,1122.82L1492.98,1122.05L1493.59,1121.29L1494.13,1120.53L1494.61,1119.78L1495.01,1119.05L1495.35,1118.31L1495.6,1117.68L1495.82,1116.95L1495.99,1116.22L1496.1,1115.5L1496.14,1114.77L1496.15,1114.34C1496.12,1112.87 1495.75,1111.41 1495.09,1109.93L1495.09,1109.93C1493.92,1107.32 1491.84,1104.67 1489.18,1101.87C1478.64,1090.78 1461.24,1079.64 1457.2,1066.46C1453.16,1053.28 1449.51,1039.39 1431.81,1047.84C1414.11,1056.28 1421.45,1072.67 1411.04,1080.09C1409.05,1081.51 1407.53,1083.08 1406.41,1084.72ZM1438.81,1063.83C1443.35,1063.83 1447.04,1067.52 1447.04,1072.06C1447.04,1076.6 1443.35,1080.29 1438.81,1080.29C1434.27,1080.29 1430.58,1076.6 1430.58,1072.06C1430.58,1067.52 1434.27,1063.83 1438.81,1063.83Z"/>
        </g>
        <g id="Black-S" transform="matrix(1,0,0,1,2879.35,696)">
            <path d="M14.258,-14.648L33.203,4.248C40.43,11.475 49.316,11.621 56.25,4.688L95.313,-34.375C100.684,-39.746 100.586,-46.484 95.166,-51.904L70.459,-76.66C65.039,-82.08 58.252,-82.129 52.93,-76.758L13.867,-37.744C6.934,-30.811 7.08,-21.875 14.258,-14.648ZM25,-23.975C23.486,-25.488 23.34,-27.148 24.561,-28.418L60.596,-64.404C61.182,-65.039 62.012,-65.039 62.647,-64.404L82.959,-44.092C83.545,-43.506 83.545,-42.676 82.959,-42.041L46.924,-6.055C45.703,-4.785 43.994,-4.98 42.529,-6.445L25,-23.975ZM25.684,-37.598L56.103,-7.129L64.404,-15.43L33.936,-45.85L25.684,-37.598Z" style="fill:none;fill-rule:nonzero;stroke:black;stroke-width:0.5px;"/>
        </g>
        <g transform="matrix(1,0,0,1,0,-430.88)">
            <g id="Regular-S">
                <path d="M1406.41,1084.72L1405.93,1085.45L1405.49,1086.22L1405.07,1087.07L1404.73,1087.85L1404.41,1088.7L1404.24,1089.27L1404,1090.14L1403.82,1091.01L1403.72,1091.64L1403.63,1092.48L1403.58,1093.32L1403.57,1094.14L1403.6,1094.99L1403.67,1095.89L1403.78,1096.64L1403.91,1097.36L1404.02,1097.86C1404.81,1101.15 1406.7,1103.67 1408.01,1105.04C1415.27,1112.68 1440.8,1137.31 1462.77,1137.35L1463.07,1137.34C1466.8,1137.31 1470.41,1136.56 1473.82,1134.9L1475.33,1134.15L1476.33,1133.65L1478.31,1132.61L1479.94,1131.72L1481.49,1130.85L1482.95,1129.98L1484.32,1129.13L1485.61,1128.29L1486.82,1127.46L1487.95,1126.64L1488.99,1125.83L1489.96,1125.03L1490.85,1124.24L1491.54,1123.59L1492.3,1122.82L1492.98,1122.05L1493.59,1121.29L1494.13,1120.53L1494.61,1119.78L1495.01,1119.05L1495.35,1118.31L1495.6,1117.68L1495.82,1116.95L1495.99,1116.22L1496.1,1115.5L1496.14,1114.77L1496.15,1114.34C1496.12,1112.87 1495.75,1111.41 1495.09,1109.93L1495.09,1109.93C1493.92,1107.32 1491.84,1104.67 1489.18,1101.87C1478.64,1090.78 1461.24,1079.64 1457.2,1066.46C1453.16,1053.28 1449.51,1039.39 1431.81,1047.84C1414.11,1056.28 1421.45,1072.67 1411.04,1080.09C1409.05,1081.51 1407.53,1083.08 1406.41,1084.72ZM1438.81,1063.83C1443.35,1063.83 1447.04,1067.52 1447.04,1072.06C1447.04,1076.6 1443.35,1080.29 1438.81,1080.29C1434.27,1080.29 1430.58,1076.6 1430.58,1072.06C1430.58,1067.52 1434.27,1063.83 1438.81,1063.83Z"/>
            </g>
        </g>
        <g id="Ultralight-S" transform="matrix(1,0,0,1,515.335,696)">
            <path d="M11.8,-18.883L27.849,-2.883C31.78,1.044 37.198,1.152 41.056,-2.706L78.008,-39.707C80.577,-42.227 80.619,-45.946 77.998,-48.477L57.394,-69.078C54.863,-71.653 51.193,-71.66 48.624,-69.091L11.626,-32.135C7.768,-28.277 7.876,-22.859 11.8,-18.883ZM13.329,-20.503C10.354,-23.482 10.253,-27.613 13.218,-30.581L50.178,-67.542C51.826,-69.189 54.224,-69.189 55.868,-67.545L76.465,-46.947C78.109,-45.258 78.106,-42.909 76.462,-41.216L39.495,-4.301C36.533,-1.333 32.402,-1.434 29.424,-4.412L13.329,-20.503ZM16.741,-35.2L44.253,-7.688L45.734,-9.263L18.278,-36.72L16.741,-35.2Z" style="fill:none;fill-rule:nonzero;stroke:black;stroke-width:0.5px;"/>
        </g>
    </g>
</svg>
